<svg width="78" height="41" viewBox="0 0 78 41" fill="none" xmlns="http://www.w3.org/2000/svg">
<path d="M1.85546 40.2048C1.51708 40.2048 1.18518 40.1116 0.895622 39.9356C0.606052 39.7595 0.369871 39.5072 0.212615 39.2058C0.0553463 38.9046 -0.0170136 38.5657 0.00337065 38.226C0.023743 37.8864 0.136076 37.5588 0.328212 37.2786L8.16639 25.8526L0.895087 15.1201C0.70675 14.8421 0.597362 14.5177 0.578699 14.1818C0.560024 13.8459 0.632788 13.5114 0.789142 13.214C0.945496 12.9165 1.17953 12.6677 1.46605 12.4941C1.75257 12.3205 2.08073 12.2289 2.41521 12.2289H2.64482C2.94912 12.2289 3.24869 12.3048 3.51662 12.4499C3.78456 12.595 4.01249 12.8047 4.17998 13.0602L10.6532 22.9336L17.071 13.0673C17.2035 12.8619 17.3754 12.685 17.5765 12.5469C17.7775 12.4087 18.0039 12.3121 18.2424 12.2627C18.4809 12.2132 18.7268 12.2119 18.9659 12.2589C19.2048 12.3057 19.4322 12.3999 19.6347 12.5358C19.8373 12.6718 20.011 12.8468 20.1457 13.0509C20.2804 13.2549 20.3735 13.4837 20.4197 13.7242C20.4658 13.9647 20.4639 14.2119 20.4142 14.4518C20.3645 14.6915 20.268 14.9189 20.1301 15.1208L12.8645 25.8526L20.5751 37.2889C20.7642 37.5696 20.8738 37.8967 20.892 38.2353C20.9103 38.5738 20.8364 38.9108 20.6785 39.2103C20.5206 39.5098 20.2846 39.7604 19.9958 39.9352C19.7069 40.11 19.3763 40.2023 19.0392 40.2024H18.8871C18.5776 40.2026 18.2729 40.1247 18.0009 39.976C17.7289 39.8273 17.4981 39.6126 17.3299 39.3513L10.4672 28.7023L3.40092 39.3736C3.23136 39.6293 3.00167 39.8389 2.73221 39.9839C2.46275 40.1289 2.16107 40.2048 1.85546 40.2048Z" fill="white"/>
<path d="M26.3408 20.4712C26.7877 20.4712 27.2164 20.65 27.5325 20.9682C27.8485 21.2865 28.0261 21.7182 28.0261 22.1683V38.5407C28.0166 38.9843 27.835 39.4067 27.52 39.7172C27.205 40.0276 26.7819 40.2014 26.3411 40.2014C25.9004 40.2014 25.4772 40.0276 25.1622 39.7172C24.8473 39.4067 24.6656 38.9843 24.6562 38.5407V22.1683C24.6562 21.7182 24.8337 21.2865 25.1498 20.9682C25.4659 20.65 25.8938 20.4712 26.3408 20.4712Z" fill="white"/>
<path d="M26.3408 12.2262C26.7674 12.2074 27.1843 12.3594 27.5001 12.6491C27.8159 12.9387 28.005 13.3424 28.0261 13.7721V14.1263C27.9833 14.5463 27.7872 14.9354 27.4761 15.2183C27.1648 15.5011 26.7604 15.6576 26.3411 15.6576C25.9219 15.6576 25.5174 15.5011 25.2063 15.2183C24.895 14.9354 24.699 14.5463 24.6562 14.1263V13.7721C24.6774 13.3424 24.8665 12.9387 25.1823 12.6491C25.498 12.3594 25.914 12.2074 26.3408 12.2262Z" fill="white"/>
<path d="M33.4296 12.2341C33.8569 12.2344 34.2665 12.4053 34.5685 12.7097C34.8705 13.0139 35.0403 13.4265 35.0403 13.8567V22.1169C35.7249 21.1958 36.6159 20.4503 37.6407 19.9412C38.6655 19.4322 39.7951 19.1739 40.9377 19.1873C42.0615 19.1473 43.1804 19.3546 44.2165 19.7948C45.2524 20.2352 46.1806 20.8977 46.9361 21.7364C48.4702 23.4362 49.2374 25.9429 49.2374 29.2563C49.3421 32.0437 48.544 34.7901 46.9631 37.0808C46.2518 38.086 45.3031 38.8972 44.2027 39.4411C43.1023 39.9849 41.8847 40.2442 40.6598 40.1958C39.3081 40.2404 37.9766 39.8578 36.8518 39.1019C36.0888 38.518 35.4214 37.8171 34.8739 37.025V38.0266C34.8739 38.4347 34.713 38.8262 34.4263 39.1148C34.1397 39.4034 33.751 39.5655 33.3457 39.5655C32.9404 39.5655 32.5517 39.4034 32.265 39.1148C31.9784 38.8262 31.8174 38.4347 31.8174 38.0266V13.8567C31.8174 13.4264 31.9872 13.0137 32.2894 12.7094C32.5916 12.4051 33.0022 12.2341 33.4296 12.2341ZM44.4939 35.0962C45.4606 33.369 45.9249 31.4026 45.8336 29.4221C45.9043 27.5957 45.4384 25.7889 44.4939 24.228C44.0757 23.5644 43.4902 23.0245 42.7972 22.6629C42.1042 22.3013 41.3285 22.1312 40.5489 22.1697C39.8058 22.1665 39.0697 22.3146 38.3848 22.6052C37.7001 22.8958 37.0806 23.3227 36.5639 23.8605C35.4244 24.9851 34.8547 26.8393 34.8547 29.423C34.802 30.9683 35.0403 32.5097 35.5568 33.9658C35.9034 34.9775 36.5701 35.8464 37.4548 36.4394C38.3394 37.0323 39.393 37.3161 40.4534 37.2475C41.2573 37.2906 42.0576 37.1133 42.7692 36.7345C43.4807 36.3555 44.0769 35.7894 44.4939 35.0962Z" fill="white"/>
<path d="M68.6989 21.547C70.4439 23.2526 71.3165 25.7592 71.3165 29.0669C71.4281 31.893 70.6186 34.6782 69.0115 36.9977C67.4757 39.0852 65.0926 40.1287 61.862 40.1282C60.6544 40.1814 59.4502 39.9601 58.3391 39.4806C57.2282 39.001 56.2386 38.2756 55.444 37.3581C53.8596 35.512 53.0674 33.0326 53.0674 29.9197C53.0674 26.5851 53.9025 23.9299 55.5726 21.954C56.3974 20.9781 57.4318 20.2039 58.5976 19.6903C59.7635 19.1767 61.0302 18.937 62.3017 18.9895C63.4842 18.9631 64.66 19.1758 65.7594 19.6153C66.8588 20.0547 67.8594 20.7118 68.702 21.5478M66.6439 34.7456C67.4666 33.0028 67.8809 31.0932 67.855 29.1639C67.9157 27.6097 67.6165 26.0626 66.9812 24.6449C66.5478 23.7607 65.8616 23.0273 65.0111 22.5388C64.1605 22.0504 63.1842 21.8291 62.2077 21.9036C61.3358 21.8442 60.4647 22.0311 59.6925 22.4434C58.9204 22.8556 58.278 23.4769 57.8378 24.2371C56.8862 25.9553 56.4143 27.9006 56.4719 29.8669C56.4038 31.723 56.8786 33.5583 57.8378 35.1449C58.3109 35.8505 58.961 36.4176 59.7222 36.7885C60.4833 37.1593 61.3284 37.3209 62.1715 37.2567C64.3442 37.2567 65.834 36.4201 66.6409 34.7472" fill="white"/>
<path d="M51.0496 8.07497C53.2133 8.07497 54.9673 6.32329 54.9673 4.16248C54.9673 2.00168 53.2133 0.25 51.0496 0.25C48.8859 0.25 47.1318 2.00168 47.1318 4.16248C47.1318 6.32329 48.8859 8.07497 51.0496 8.07497Z" fill="white" stroke="white" stroke-width="0.5"/>
<path d="M56.5111 16.8485C58.2814 16.8485 59.7165 15.4153 59.7165 13.6474C59.7165 11.8795 58.2814 10.4463 56.5111 10.4463C54.7408 10.4463 53.3057 11.8795 53.3057 13.6474C53.3057 15.4153 54.7408 16.8485 56.5111 16.8485Z" fill="white" stroke="white" stroke-width="0.5"/>
<path d="M67.9076 16.8485C69.6779 16.8485 71.113 15.4153 71.113 13.6474C71.113 11.8795 69.6779 10.4463 67.9076 10.4463C66.1373 10.4463 64.7021 11.8795 64.7021 13.6474C64.7021 15.4153 66.1373 16.8485 67.9076 16.8485Z" fill="white" stroke="white" stroke-width="0.5"/>
<path d="M73.3689 8.07497C75.5326 8.07497 77.2867 6.32329 77.2867 4.16248C77.2867 2.00168 75.5326 0.25 73.3689 0.25C71.2052 0.25 69.4512 2.00168 69.4512 4.16248C69.4512 6.32329 71.2052 8.07497 73.3689 8.07497Z" fill="white" stroke="white" stroke-width="0.5"/>
</svg>
