<svg width="44" height="40" viewBox="0 0 44 40" fill="none" xmlns="http://www.w3.org/2000/svg">
<path d="M28.4567 21.3579C30.1928 23.0684 31.0609 25.5822 31.0609 28.8993C31.172 31.7335 30.3666 34.5267 28.7677 36.8528C27.2398 38.9463 24.869 39.9927 21.655 39.9922C20.4536 40.0456 19.2556 39.8236 18.1502 39.3428C17.0449 38.8619 16.0605 38.1343 15.27 37.2143C13.6937 35.3629 12.9055 32.8764 12.9055 29.7546C12.9055 26.4104 13.7363 23.7477 15.3979 21.7661C16.2184 20.7874 17.2475 20.011 18.4073 19.496C19.5673 18.9809 20.8274 18.7405 22.0924 18.7932C23.2689 18.7666 24.4386 18.9799 25.5323 19.4207C26.6261 19.8613 27.6216 20.5204 28.4598 21.3588M26.4124 34.5942C27.2307 32.8465 27.643 30.9314 27.6172 28.9966C27.6776 27.4379 27.3799 25.8864 26.7479 24.4647C26.3167 23.578 25.634 22.8425 24.7879 22.3526C23.9416 21.8628 22.9704 21.6409 21.9989 21.7156C21.1314 21.656 20.2648 21.8434 19.4967 22.2569C18.7285 22.6703 18.0894 23.2934 17.6514 24.0557C16.7048 25.7788 16.2353 27.7297 16.2926 29.7016C16.2248 31.563 16.6972 33.4036 17.6514 34.9947C18.1221 35.7024 18.7689 36.271 19.5262 36.643C20.2834 37.0149 21.1241 37.1769 21.9629 37.1125C24.1244 37.1125 25.6066 36.2735 26.4093 34.5959" fill="white"/>
<path d="M10.8976 7.84732C13.0502 7.84732 14.7953 6.09064 14.7953 3.92366C14.7953 1.75668 13.0502 0 10.8976 0C8.74503 0 7 1.75668 7 3.92366C7 6.09064 8.74503 7.84732 10.8976 7.84732Z" fill="white"/>
<path d="M16.3307 16.6458C18.0919 16.6458 19.5197 15.2086 19.5197 13.4356C19.5197 11.6626 18.0919 10.2253 16.3307 10.2253C14.5695 10.2253 13.1417 11.6626 13.1417 13.4356C13.1417 15.2086 14.5695 16.6458 16.3307 16.6458Z" fill="white"/>
<path d="M27.6693 16.6458C29.4305 16.6458 30.8583 15.2086 30.8583 13.4356C30.8583 11.6626 29.4305 10.2253 27.6693 10.2253C25.9081 10.2253 24.4803 11.6626 24.4803 13.4356C24.4803 15.2086 25.9081 16.6458 27.6693 16.6458Z" fill="white"/>
<path d="M33.1024 7.84732C35.255 7.84732 37 6.09064 37 3.92366C37 1.75668 35.255 0 33.1024 0C30.9498 0 29.2047 1.75668 29.2047 3.92366C29.2047 6.09064 30.9498 7.84732 33.1024 7.84732Z" fill="white"/>
</svg>
