<svg width="44" height="40" viewBox="0 0 44 40" fill="none" xmlns="http://www.w3.org/2000/svg">
<g clip-path="url(#clip0_1019_157)">
<path d="M10.8 36.6667C4.8375 36.6667 0 31.8676 0 25.9524C0 21.2351 3.075 17.2321 7.3425 15.7961C7.245 15.2232 7.2 14.6429 7.2 14.0476C7.2 8.13244 12.0375 3.33333 18 3.33333C22.155 3.33333 25.7625 5.6622 27.57 9.06994C28.635 8.45238 29.88 8.09524 31.2 8.09524C35.175 8.09524 38.4 11.2946 38.4 15.2381C38.4 16.4062 38.115 17.5149 37.6125 18.4896C40.9125 20 43.2 23.3036 43.2 27.1429C43.2 32.4033 38.9025 36.6667 33.6 36.6667H10.8ZM22.875 15.1637C22.17 14.4643 21.03 14.4643 20.3325 15.1637L14.9325 20.5208C14.2275 21.2202 14.2275 22.3512 14.9325 23.0432C15.6375 23.7351 16.7775 23.7426 17.475 23.0432L19.8 20.7366V28.3333C19.8 29.3229 20.6025 30.119 21.6 30.119C22.5975 30.119 23.4 29.3229 23.4 28.3333V20.7366L25.725 23.0432C26.43 23.7426 27.57 23.7426 28.2675 23.0432C28.965 22.3437 28.9725 21.2128 28.2675 20.5208L22.8675 15.1637H22.875Z" fill="#0E70F6"/>
</g>
<defs>
<clipPath id="clip0_1019_157">
<rect width="43.2" height="40" fill="white"/>
</clipPath>
</defs>
</svg>
