<svg width="43" height="40" viewBox="0 0 43 40" fill="none" xmlns="http://www.w3.org/2000/svg">
<g clip-path="url(#clip0_1019_1457)">
<path d="M37.3333 5.33333V26.6667H5.33333V5.33333H37.3333ZM5.33333 0C2.39167 0 0 2.39167 0 5.33333V26.6667C0 29.6083 2.39167 32 5.33333 32H17.3333L16 36H10C8.89167 36 8 36.8917 8 38C8 39.1083 8.89167 40 10 40H32.6667C33.775 40 34.6667 39.1083 34.6667 38C34.6667 36.8917 33.775 36 32.6667 36H26.6667L25.3333 32H37.3333C40.275 32 42.6667 29.6083 42.6667 26.6667V5.33333C42.6667 2.39167 40.275 0 37.3333 0H5.33333Z" fill="#0E70F6"/>
</g>
<defs>
<clipPath id="clip0_1019_1457">
<rect width="42.6667" height="40" fill="white"/>
</clipPath>
</defs>
</svg>
