<svg width="40" height="40" viewBox="0 0 40 40" fill="none" xmlns="http://www.w3.org/2000/svg">
<g clip-path="url(#clip0_1172_1607)">
<path d="M1.91489 3.33333C0.853723 3.33333 0 4.1907 0 5.25641V9.10256C0 10.1683 0.853723 11.0256 1.91489 11.0256H5.74468C6.80585 11.0256 7.65957 10.1683 7.65957 9.10256V5.25641C7.65957 4.1907 6.80585 3.33333 5.74468 3.33333H1.91489ZM14.0426 4.61538C12.6303 4.61538 11.4894 5.76122 11.4894 7.17949C11.4894 8.59775 12.6303 9.74359 14.0426 9.74359H37.0213C38.4335 9.74359 39.5745 8.59775 39.5745 7.17949C39.5745 5.76122 38.4335 4.61538 37.0213 4.61538H14.0426ZM14.0426 17.4359C12.6303 17.4359 11.4894 18.5817 11.4894 20C11.4894 21.4183 12.6303 22.5641 14.0426 22.5641H37.0213C38.4335 22.5641 39.5745 21.4183 39.5745 20C39.5745 18.5817 38.4335 17.4359 37.0213 17.4359H14.0426ZM14.0426 30.2564C12.6303 30.2564 11.4894 31.4022 11.4894 32.8205C11.4894 34.2388 12.6303 35.3846 14.0426 35.3846H37.0213C38.4335 35.3846 39.5745 34.2388 39.5745 32.8205C39.5745 31.4022 38.4335 30.2564 37.0213 30.2564H14.0426ZM0 18.0769V21.9231C0 22.9888 0.853723 23.8462 1.91489 23.8462H5.74468C6.80585 23.8462 7.65957 22.9888 7.65957 21.9231V18.0769C7.65957 17.0112 6.80585 16.1538 5.74468 16.1538H1.91489C0.853723 16.1538 0 17.0112 0 18.0769ZM1.91489 28.9744C0.853723 28.9744 0 29.8317 0 30.8974V34.7436C0 35.8093 0.853723 36.6667 1.91489 36.6667H5.74468C6.80585 36.6667 7.65957 35.8093 7.65957 34.7436V30.8974C7.65957 29.8317 6.80585 28.9744 5.74468 28.9744H1.91489Z" fill="#0E70F6"/>
</g>
<defs>
<clipPath id="clip0_1172_1607">
<rect width="39.5745" height="40" fill="white"/>
</clipPath>
</defs>
</svg>
