<svg width="35" height="40" viewBox="0 0 35 40" fill="none" xmlns="http://www.w3.org/2000/svg">
<path d="M5 3.33333C2.24219 3.33333 0 5.57552 0 8.33333V13.3333C0 16.0911 2.24219 18.3333 5 18.3333H30C32.7578 18.3333 35 16.0911 35 13.3333V8.33333C35 5.57552 32.7578 3.33333 30 3.33333H5ZM21.875 8.95833C22.3723 8.95833 22.8492 9.15588 23.2008 9.50751C23.5525 9.85914 23.75 10.3361 23.75 10.8333C23.75 11.3306 23.5525 11.8075 23.2008 12.1592C22.8492 12.5108 22.3723 12.7083 21.875 12.7083C21.3777 12.7083 20.9008 12.5108 20.5492 12.1592C20.1975 11.8075 20 11.3306 20 10.8333C20 10.3361 20.1975 9.85914 20.5492 9.50751C20.9008 9.15588 21.3777 8.95833 21.875 8.95833ZM26.25 10.8333C26.25 10.3361 26.4475 9.85914 26.7992 9.50751C27.1508 9.15588 27.6277 8.95833 28.125 8.95833C28.6223 8.95833 29.0992 9.15588 29.4508 9.50751C29.8025 9.85914 30 10.3361 30 10.8333C30 11.3306 29.8025 11.8075 29.4508 12.1592C29.0992 12.5108 28.6223 12.7083 28.125 12.7083C27.6277 12.7083 27.1508 12.5108 26.7992 12.1592C26.4475 11.8075 26.25 11.3306 26.25 10.8333ZM5 23.3333C2.24219 23.3333 0 25.5755 0 28.3333V33.3333C0 36.0911 2.24219 38.3333 5 38.3333H30C32.7578 38.3333 35 36.0911 35 33.3333V28.3333C35 25.5755 32.7578 23.3333 30 23.3333H5ZM21.875 28.9583C22.3723 28.9583 22.8492 29.1559 23.2008 29.5075C23.5525 29.8591 23.75 30.3361 23.75 30.8333C23.75 31.3306 23.5525 31.8075 23.2008 32.1592C22.8492 32.5108 22.3723 32.7083 21.875 32.7083C21.3777 32.7083 20.9008 32.5108 20.5492 32.1592C20.1975 31.8075 20 31.3306 20 30.8333C20 30.3361 20.1975 29.8591 20.5492 29.5075C20.9008 29.1559 21.3777 28.9583 21.875 28.9583ZM26.25 30.8333C26.25 30.3361 26.4475 29.8591 26.7992 29.5075C27.1508 29.1559 27.6277 28.9583 28.125 28.9583C28.6223 28.9583 29.0992 29.1559 29.4508 29.5075C29.8025 29.8591 30 30.3361 30 30.8333C30 31.3306 29.8025 31.8075 29.4508 32.1592C29.0992 32.5108 28.6223 32.7083 28.125 32.7083C27.6277 32.7083 27.1508 32.5108 26.7992 32.1592C26.4475 31.8075 26.25 31.3306 26.25 30.8333Z" fill="#0E70F6"/>
</svg>
