<svg width="35" height="40" viewBox="0 0 35 40" fill="none" xmlns="http://www.w3.org/2000/svg">
<path d="M11.3291 3.25663C11.6401 2.30556 12.5024 1.66667 13.4779 1.66667H21.5289C22.5043 1.66667 23.3667 2.30556 23.6777 3.25663L24.2856 5.15152H31.0713C32.3224 5.15152 33.3332 6.18971 33.3332 7.47475C33.3332 8.75979 32.3224 9.79798 31.0713 9.79798H3.92841C2.67729 9.79798 1.6665 8.75979 1.6665 7.47475C1.6665 6.18971 2.67729 5.15152 3.92841 5.15152H10.7141L11.3291 3.25663ZM3.92841 13.2828H31.0713V35.3535C31.0713 37.9163 29.0426 40 26.5475 40H8.45222C5.95705 40 3.92841 37.9163 3.92841 35.3535V13.2828ZM10.1486 17.9293C9.20854 17.9293 8.45222 18.7061 8.45222 19.6717V33.6111C8.45222 34.5767 9.20854 35.3535 10.1486 35.3535C11.0888 35.3535 11.8451 34.5767 11.8451 33.6111V19.6717C11.8451 18.7061 11.0888 17.9293 10.1486 17.9293ZM17.4998 17.9293C16.5597 17.9293 15.8034 18.7061 15.8034 19.6717V33.6111C15.8034 34.5767 16.5597 35.3535 17.4998 35.3535C18.4399 35.3535 19.1963 34.5767 19.1963 33.6111V19.6717C19.1963 18.7061 18.4399 17.9293 17.4998 17.9293ZM24.851 17.9293C23.9109 17.9293 23.1546 18.7061 23.1546 19.6717V33.6111C23.1546 34.5767 23.9109 35.3535 24.851 35.3535C25.7911 35.3535 26.5475 34.5767 26.5475 33.6111V19.6717C26.5475 18.7061 25.7911 17.9293 24.851 17.9293Z" fill="#0E70F6"/>
</svg>
