<svg width="37" height="40" viewBox="0 0 37 40" fill="none" xmlns="http://www.w3.org/2000/svg">
<path d="M17.7874 18.75C19.0097 18.75 20.22 18.5075 21.3492 18.0364C22.4784 17.5652 23.5044 16.8747 24.3687 16.0041C25.233 15.1336 25.9186 14.1001 26.3863 12.9627C26.854 11.8252 27.0948 10.6061 27.0948 9.375C27.0948 8.14386 26.854 6.92477 26.3863 5.78734C25.9186 4.64992 25.233 3.61642 24.3687 2.74587C23.5044 1.87532 22.4784 1.18477 21.3492 0.713629C20.22 0.242491 19.0097 -1.83455e-08 17.7874 0C16.5652 -1.83455e-08 15.3549 0.242491 14.2256 0.713629C13.0964 1.18477 12.0704 1.87532 11.2061 2.74587C10.3419 3.61642 9.65628 4.64992 9.18854 5.78734C8.7208 6.92477 8.48006 8.14386 8.48006 9.375C8.48006 10.6061 8.7208 11.8252 9.18854 12.9627C9.65628 14.1001 10.3419 15.1336 11.2061 16.0041C12.0704 16.8747 13.0964 17.5652 14.2256 18.0364C15.3549 18.5075 16.5652 18.75 17.7874 18.75ZM15.4838 23.125C7.84406 23.125 1.65466 29.3594 1.65466 37.0547C1.65466 38.3359 2.68623 39.375 3.95823 39.375H31.6166C32.8886 39.375 33.9202 38.3359 33.9202 37.0547C33.9202 29.3594 27.7308 23.125 20.091 23.125H15.4838Z" fill="#0E70F6"/>
</svg>
